<svg t="1768388810479" class="icon" viewBox="0 0 1024 1024" version="1.1" xmlns="http://www.w3.org/2000/svg" p-id="2638" width="200" height="200"><path d="M948.010667 411.989333h-266.026667c-1.984 0-1.984 2.005333-3.989333 2.005334l-144 72c-1.984 0-3.989333 2.005333-5.994667 2.005333-2.005333 0-4.010667-2.005333-5.994667-2.005333-2.005333-2.005333-6.016-5.994667-6.016-10.005334v-147.989333c0-4.010667 4.010667-8 6.016-10.005333 3.989333-3.989333 8-3.989333 11.989334-2.005334l136 72h278.016c7.978667 0 11.989333 6.016 11.989333 12.010667 0 5.994667-4.010667 11.989333-12.010667 11.989333z" fill="#4D4D4D" p-id="2639"></path><path d="M296 212.010667c-42.005333 0-76.010667-34.005333-76.010667-78.016a75.946667 75.946667 0 0 1 76.010667-75.989334 75.946667 75.946667 0 0 1 76.010667 75.989334c0 44.010667-34.005333 78.016-76.010667 78.016z" fill="#F3A766" p-id="2640"></path><path d="M466.005333 813.994667c-5.994667 0-10.005333-5.994667-12.010666-11.989334l-48-8a11.008 11.008 0 0 1-9.984 5.994667c-6.016 0-12.010667-4.010667-12.010667-12.010667V666.026667c0-16-18.005333-24-43.989333-38.016-10.026667-3.989333-20.010667-8-28.010667-13.994667h-2.005333c-32-26.005333-35.989333-53.994667-35.989334-58.005333L234.005333 314.026667a80.448 80.448 0 0 1 11.989334-52.010667c12.010667-13.994667 28.010667-24 46.016-26.005333 17.984-3.989333 35.989333 0 51.989333 12.010666a63.146667 63.146667 0 0 1 26.005333 43.989334c3.989333 20.010667 32 44.010667 53.994667 62.016 5.994667 3.989333 12.010667 8 16 11.989333h88c24 0 42.005333 20.010667 42.005333 42.005333 0 21.994667-18.005333 40-42.005333 40h-91.989333c-4.010667 0-6.016 0-8-2.005333l-38.016-32 24 157.994667c2.005333 6.016 4.010667 8 16 14.016 20.010667 8 48 21.994667 48 81.984v134.016c0 5.994667-3.989333 11.989333-11.989334 11.989333z" fill="#BC9D8C" p-id="2641"></path><path d="M268.010667 636.010667a15.274667 15.274667 0 0 1-10.026667-4.010667c-61.973333-99.989333-139.989333-85.994667-144-83.989333a15.04 15.04 0 0 1-13.973333-10.026667c-2.005333-5.973333 3.989333-11.989333 9.984-13.973333q24-6.016 58.005333 3.989333c29.994667 8 74.005333 32 109.994667 90.005333 4.010667 5.994667 2.005333 13.994667-3.989334 16-2.005333 2.005333-4.010667 2.005333-5.994666 2.005334z m-72.021334 56a11.008 11.008 0 0 1-9.984-6.016C124.010667 586.026667 45.994667 602.026667 44.010667 602.026667c-8.021333 2.005333-14.016-2.005333-16-10.005334 0-5.994667 3.989333-11.989333 9.984-13.994666 2.005333 0 26.005333-4.010667 58.005333 3.989333 29.994667 10.005333 74.005333 32 109.994667 90.005333 4.010667 5.994667 2.005333 13.994667-3.989334 18.005334-2.005333 0-4.010667 2.005333-5.994666 2.005333z m268.010667 192c-40 0-64-40-104-56-84.010667-34.005333-197.994667-22.016-357.994667 61.994666L0 946.005333c4.010667 3.989333 12.010667 5.994667 16 3.989334 162.005333-97.984 256-57.984 338.005333-24 35.989333 16 69.994667 30.016 107.989334 30.016 30.016 0 60.010667-8 94.016-34.005334 61.994667-44.010667 109.994667-24 171.989333 3.989334 44.010667 18.005333 93.994667 40 156.010667 40 41.984 0 85.973333-9.984 139.989333-33.984l-2.005333-34.005334c-41.984 11.989333-77.994667-37.994667-112-37.994666-65.984 0-113.984-22.016-161.984-40-66.005333-28.010667-120.021333-18.005333-186.026667 25.984-35.989333 26.005333-65.984 38.016-97.984 38.016z" fill="#83DEFF" p-id="2642"></path><path d="M1018.005333 819.989333l3.989334 78.016c-41.984 11.989333-77.994667 17.984-112 17.984-67.989333 0-120-21.973333-168-40-64-27.989333-115.989333-48-184-3.989333-35.989333 26.005333-67.989333 34.005333-99.989334 34.005333-40 0-76.010667-14.016-116.010666-30.016-83.989333-32-179.989333-69.973333-339.989334 14.016v-82.005333c163.989333-124.010667 267.989333-60.010667 352-26.005333 66.005333 28.010667 115.989333 53.994667 186.005334 4.010666 80-52.010667 149.973333-32 217.984-4.010666 72 24 148.010667 60.010667 260.010666 37.994666z" fill="#2ECCFB" p-id="2643"></path><path d="M4.010667 778.005333l-2.005334 29.994667C168 728 269.994667 768 352 802.005333c68.010667 26.005333 122.005333 45.994667 189.994667-2.005333 80-51.989333 144-26.005333 210.005333 0 69.994667 28.010667 148.010667 60.010667 266.005333 20.010667l-2.005333-44.010667c-120 50.005333-200 16-269.994667-13.994667-66.005333-30.016-128-56-204.010666-2.005333-67.989333 52.010667-120 29.994667-184 2.005333-83.989333-34.005333-185.984-77.994667-353.984 16z" fill="#2EB5FB" p-id="2644"></path></svg>