<svg viewBox="0 0 46 46" fill="none" xmlns="http://www.w3.org/2000/svg">
    <defs>
        <linearGradient y1="0" x1="0" y2="1" x2="0" id="desktop-logo-gradient">
        <stop offset="0%" stop-color="#404040" />
        <stop offset="100%" stop-color="#222222" />
        </linearGradient>
    </defs>
    <path d="M36.0917 31.5709C36.0917 33.3559 34.6447 34.8029 32.8597 34.8029C31.7701 34.8029 30.8073 34.2631 30.2219 33.4371L23.7184 26.9336L16.9007 33.7511C16.3098 34.3974 15.4599 34.8028 14.5152 34.8028C12.7303 34.8028 11.2833 33.3558 11.2833 31.5709V12.1791C11.2833 10.3942 12.7303 8.94713 14.5152 8.94713C16.3002 8.94713 17.7473 10.3942 17.7473 12.1791V23.7634L21.4319 20.0786L21.433 20.0776C21.6698 19.8409 21.9339 19.6486 22.2154 19.5007C23.4351 18.8597 24.9783 19.052 26.0038 20.0775L26.0069 20.0807L29.6278 23.7017V18.6431C29.6278 16.8581 31.0748 15.4111 32.8598 15.4111C34.6448 15.4111 36.0918 16.8581 36.0918 18.6431L36.0917 31.5709Z" fill="white" />
    <path d="M22.875 1H1V22.875C1 34.9563 10.7937 44.75 22.875 44.75C34.9562 44.75 44.75 34.9563 44.75 22.875C44.75 10.7937 34.9563 1 22.875 1ZM36.0917 31.5709C36.0917 33.3559 34.6447 34.8029 32.8597 34.8029C31.7701 34.8029 30.8073 34.2631 30.2219 33.4371L23.7184 26.9336L16.9007 33.7511C16.3098 34.3974 15.4599 34.8028 14.5152 34.8028C12.7303 34.8028 11.2833 33.3558 11.2833 31.5709V12.1791C11.2833 10.3942 12.7303 8.94713 14.5152 8.94713C16.3002 8.94713 17.7473 10.3942 17.7473 12.1791V23.7634L21.4319 20.0786L21.433 20.0776C21.6698 19.8409 21.9339 19.6486 22.2154 19.5007C23.4351 18.8597 24.9783 19.052 26.0038 20.0775L26.0069 20.0807L29.6278 23.7017V18.6431C29.6278 16.8581 31.0748 15.4111 32.8598 15.4111C34.6448 15.4111 36.0918 16.8581 36.0918 18.6431L36.0917 31.5709Z" fill="url(#desktop-logo-gradient)"/>
</svg>